<svg width="24" height="24" viewBox="0 0 24 24" fill="none" xmlns="http://www.w3.org/2000/svg">
  <!-- Microsoft Dynamics 365 Logo - Official Colors -->
  <rect width="24" height="24" rx="2" fill="#0078D4"/>
  <!-- Dynamics 365 Icon -->
  <path d="M12 2L13.5 4.5L16 2H12Z" fill="white" opacity="0.9"/>
  <path d="M12 22L13.5 19.5L16 22H12Z" fill="white" opacity="0.9"/>
  <path d="M2 12L4.5 10.5L2 9V12Z" fill="white" opacity="0.9"/>
  <path d="M22 12L19.5 10.5L22 9V12Z" fill="white" opacity="0.9"/>
  <path d="M12 6L14 8L12 10L10 8L12 6Z" fill="white" opacity="0.9"/>
  <path d="M12 14L14 16L12 18L10 16L12 14Z" fill="white" opacity="0.9"/>
  <path d="M6 12L8 14L6 16L4 14L6 12Z" fill="white" opacity="0.9"/>
  <path d="M18 12L20 14L18 16L16 14L18 12Z" fill="white" opacity="0.9"/>
  <circle cx="12" cy="12" r="2" fill="white"/>
  <!-- Dynamics Text -->
  <text x="12" y="20" font-family="Arial, sans-serif" font-size="3" font-weight="bold" fill="white" text-anchor="middle">D365</text>
</svg>
